<svg xmlns="http://www.w3.org/2000/svg" viewBox="0 0 250 250">
  <style>
    path { fill: #000; }
    @media (prefers-color-scheme: dark) {
      path { fill: #fff; }
    }
  </style>
  <path d="M209.64,92.98l-38.75-22.37c2.78-6.23,4.35-13.12,4.35-20.37,0-27.7-22.54-50.24-50.24-50.24s-50.24,22.54-50.24,50.24c0,7.26,1.57,14.14,4.36,20.38l-38.75,22.36c-3.23,1.86-5.21,5.3-5.21,9.03v91.71c0,3.72,1.99,7.17,5.21,9.03l79.43,45.86c3.23,1.86,7.2,1.86,10.42,0l79.43-45.86c3.23-1.86,5.21-5.3,5.21-9.03v-91.71c0-3.72-1.99-7.17-5.21-9.03ZM85.19,50.24c0-21.95,17.86-39.81,39.81-39.81s39.81,17.86,39.81,39.81c0,5.36-1.08,10.46-3,15.13l-28.71-16.58,16.26-18.7-61.16,35.3c-1.93-4.67-3.01-9.78-3.01-15.14ZM119.79,236.57l-74.21-42.85v-85.69l74.21,42.85v85.69ZM125,141.85l-74.21-42.85,74.21-42.85,74.21,42.85-74.21,42.85ZM204.43,193.72l-74.21,42.85v-85.69l74.21-42.85v85.69Z"/>
</svg>
